<svg width="359" height="64" viewBox="0 0 359 64" fill="none" xmlns="http://www.w3.org/2000/svg">
<path d="M0 29.6904C0 13.2928 13.5657 0 30.2999 0H328.075C344.809 0 358.375 13.2928 358.375 29.6904V33.7856C358.375 50.1832 344.809 63.476 328.075 63.476H30.2999C13.5657 63.476 0 50.1832 0 33.7856V29.6904Z" fill="#5352ED"/>
<path d="M58.2251 47.7374C60.7649 46.0539 62.7202 43.6488 64.0804 40.5332C65.0899 38.2484 65.7275 35.6138 65.9825 32.6294C66.0782 31.6018 66.1207 30.5195 66.1207 29.4045V13.6296C66.1207 11.2137 64.2185 9.25684 61.8701 9.25684H22.7643C20.4158 9.25684 18.5137 11.2137 18.5137 13.6296V13.9795C18.5137 16.3954 20.4158 18.3522 22.7643 18.3522H32.2538V29.4045C32.2538 30.5195 32.2963 31.6018 32.392 32.6294C32.647 35.6138 33.2846 38.2484 34.2941 40.5332C35.6543 43.6488 37.599 46.0539 40.1387 47.7374C42.6785 49.41 45.6964 50.2518 49.1819 50.2518C52.6675 50.2518 55.696 49.41 58.2251 47.7374ZM42.179 38.0079C41.0845 36.6633 40.3619 34.8814 40.0006 32.6294C39.8199 31.5253 39.7349 30.3118 39.7349 28.9891V18.3522H38.481C37.4077 18.3522 36.887 16.9857 37.684 16.2314L37.7478 16.1768C38.5022 15.4553 39.7349 16.0128 39.7349 17.0732V18.3522H58.6396V17.0404C58.6396 15.98 59.8616 15.4334 60.6161 16.1331L60.7118 16.2314C61.5194 16.9748 60.9987 18.3522 59.9254 18.3522H58.6396V28.9891C58.6396 30.3118 58.5546 31.5253 58.3633 32.6294C58.0126 34.8814 57.2794 36.6633 56.1848 38.0079C54.559 40.0632 52.2211 41.0908 49.1819 41.0908C46.1427 41.0908 43.858 40.0632 42.179 38.0079Z" fill="white"/>
<path d="M69.6228 33.0597H58.1865C58.386 31.891 58.4746 30.6066 58.4746 29.2065V23.8027H69.6228C72.0719 23.8027 74.0555 25.874 74.0555 28.4312C74.0555 30.9884 72.0719 33.0597 69.6228 33.0597Z" fill="#D9D9D9"/>
<path d="M39.397 29.2065C39.397 30.6066 39.4852 31.891 39.6725 33.0597H21.5995C19.164 33.0597 17.1914 30.9884 17.1914 28.4312C17.1914 27.1584 17.6873 26.0013 18.4808 25.1566C19.2852 24.3234 20.3872 23.8027 21.5995 23.8027H39.397V29.2065Z" fill="#D9D9D9"/>
<path d="M79.3457 50.9616V10.5791H94.9982C98.5147 10.5791 101.515 11.1368 104 12.2521C106.484 13.3674 108.395 14.9827 109.733 17.098C111.071 19.2133 111.74 21.7324 111.74 24.6553C111.74 27.5782 111.071 30.0973 109.733 32.2126C108.395 34.2894 106.484 35.9047 104 37.0585C101.515 38.1738 98.5147 38.7315 94.9982 38.7315H82.4991L85.0792 36.0201V50.9616H79.3457ZM85.0792 36.597L82.4991 33.7125H94.8262C98.4956 33.7125 101.267 32.9241 103.14 31.3473C105.051 29.7704 106.006 27.5398 106.006 24.6553C106.006 21.7708 105.051 19.5402 103.14 17.9633C101.267 16.3865 98.4956 15.5981 94.8262 15.5981H82.4991L85.0792 12.7136V36.597Z" fill="white"/>
<path d="M118.801 50.9616V20.3863H124.076V28.6936L123.559 26.6167C124.4 24.5015 125.815 22.8862 127.802 21.7708C129.79 20.6555 132.236 20.0978 135.141 20.0978V25.463C134.912 25.4245 134.682 25.4053 134.453 25.4053C134.262 25.4053 134.071 25.4053 133.88 25.4053C130.937 25.4053 128.605 26.2898 126.885 28.059C125.165 29.8281 124.305 32.3857 124.305 35.7317V50.9616H118.801Z" fill="white"/>
<path d="M154.66 51.3078C151.602 51.3078 148.888 50.6347 146.519 49.2886C144.149 47.9426 142.276 46.0965 140.9 43.7505C139.524 41.366 138.836 38.6738 138.836 35.674C138.836 32.6357 139.524 29.9435 140.9 27.5975C142.276 25.2514 144.149 23.4246 146.519 22.117C148.888 20.7709 151.602 20.0978 154.66 20.0978C157.68 20.0978 160.375 20.7709 162.744 22.117C165.152 23.4246 167.025 25.2514 168.363 27.5975C169.739 29.905 170.427 32.5972 170.427 35.674C170.427 38.7123 169.739 41.4044 168.363 43.7505C167.025 46.0965 165.152 47.9426 162.744 49.2886C160.375 50.6347 157.68 51.3078 154.66 51.3078ZM154.66 46.4619C156.61 46.4619 158.349 46.0196 159.878 45.135C161.445 44.2504 162.668 43.0005 163.547 41.3852C164.426 39.7314 164.866 37.8277 164.866 35.674C164.866 33.4818 164.426 31.5972 163.547 30.0204C162.668 28.4051 161.445 27.1552 159.878 26.2706C158.349 25.386 156.61 24.9437 154.66 24.9437C152.711 24.9437 150.972 25.386 149.443 26.2706C147.914 27.1552 146.691 28.4051 145.773 30.0204C144.856 31.5972 144.397 33.4818 144.397 35.674C144.397 37.8277 144.856 39.7314 145.773 41.3852C146.691 43.0005 147.914 44.2504 149.443 45.135C150.972 46.0196 152.711 46.4619 154.66 46.4619Z" fill="white"/>
<path d="M186.754 51.3078C184.232 51.3078 181.824 50.9616 179.53 50.2694C177.275 49.5771 175.498 48.731 174.198 47.731L176.491 43.3466C177.791 44.2312 179.396 44.9812 181.307 45.5965C183.219 46.2119 185.168 46.5196 187.156 46.5196C189.717 46.5196 191.551 46.1542 192.66 45.4235C193.807 44.6927 194.38 43.6736 194.38 42.3659C194.38 41.4044 194.036 40.6545 193.348 40.116C192.66 39.5776 191.742 39.1738 190.596 38.9046C189.487 38.6354 188.245 38.4046 186.869 38.2123C185.493 37.9815 184.117 37.7123 182.741 37.4046C181.365 37.0585 180.103 36.597 178.957 36.0201C177.81 35.4047 176.893 34.5779 176.205 33.5395C175.517 32.4626 175.173 31.0396 175.173 29.2704C175.173 27.4244 175.689 25.8091 176.721 24.4245C177.753 23.04 179.205 21.9824 181.078 21.2516C182.989 20.4824 185.244 20.0978 187.844 20.0978C189.831 20.0978 191.838 20.3478 193.864 20.8478C195.928 21.3093 197.61 21.9824 198.909 22.8669L196.559 27.2513C195.183 26.3283 193.749 25.6937 192.258 25.3476C190.768 25.0014 189.277 24.8284 187.786 24.8284C185.378 24.8284 183.582 25.2322 182.397 26.0398C181.212 26.809 180.619 27.809 180.619 29.0397C180.619 30.0781 180.963 30.8857 181.652 31.4626C182.378 32.0011 183.295 32.4241 184.404 32.7318C185.55 33.0395 186.812 33.3087 188.188 33.5395C189.564 33.7318 190.94 34.001 192.316 34.3471C193.692 34.6548 194.934 35.0971 196.043 35.674C197.189 36.2509 198.107 37.0585 198.795 38.0969C199.521 39.1353 199.884 40.5199 199.884 42.2505C199.884 44.0966 199.349 45.6927 198.279 47.0388C197.208 48.3848 195.699 49.4425 193.749 50.2117C191.8 50.9424 189.468 51.3078 186.754 51.3078Z" fill="white"/>
<path d="M222.874 51.3078C220.351 51.3078 218.039 50.7309 215.937 49.5771C213.872 48.3848 212.21 46.6349 210.948 44.3274C209.725 42.0198 209.114 39.1353 209.114 35.674C209.114 32.2126 209.706 29.3281 210.891 27.0206C212.114 24.713 213.758 22.9823 215.822 21.8285C217.924 20.6747 220.275 20.0978 222.874 20.0978C225.855 20.0978 228.493 20.7517 230.786 22.0593C233.08 23.3669 234.895 25.1937 236.233 27.5398C237.571 29.8473 238.24 32.5587 238.24 35.674C238.24 38.7892 237.571 41.5198 236.233 43.8658C234.895 46.2119 233.08 48.0387 230.786 49.3463C228.493 50.654 225.855 51.3078 222.874 51.3078ZM206.763 62.1534V20.3863H212.038V28.6359L211.694 35.7317L212.267 42.8274V62.1534H206.763ZM222.415 46.4619C224.365 46.4619 226.104 46.0196 227.633 45.135C229.2 44.2504 230.423 43.0005 231.302 41.3852C232.22 39.7314 232.678 37.8277 232.678 35.674C232.678 33.4818 232.22 31.5972 231.302 30.0204C230.423 28.4051 229.2 27.1552 227.633 26.2706C226.104 25.386 224.365 24.9437 222.415 24.9437C220.504 24.9437 218.765 25.386 217.198 26.2706C215.669 27.1552 214.446 28.4051 213.528 30.0204C212.649 31.5972 212.21 33.4818 212.21 35.674C212.21 37.8277 212.649 39.7314 213.528 41.3852C214.446 43.0005 215.669 44.2504 217.198 45.135C218.765 46.0196 220.504 46.4619 222.415 46.4619Z" fill="white"/>
<path d="M259.376 51.3078C256.127 51.3078 253.26 50.6347 250.776 49.2886C248.329 47.9426 246.418 46.0965 245.042 43.7505C243.704 41.4044 243.035 38.7123 243.035 35.674C243.035 32.6357 243.685 29.9435 244.985 27.5975C246.323 25.2514 248.138 23.4246 250.432 22.117C252.763 20.7709 255.381 20.0978 258.286 20.0978C261.23 20.0978 263.829 20.7517 266.084 22.0593C268.339 23.3669 270.097 25.213 271.359 27.5975C272.658 29.9435 273.308 32.6933 273.308 35.847C273.308 36.0778 273.289 36.347 273.251 36.6547C273.251 36.9624 273.232 37.2508 273.194 37.52H247.335V33.5395H270.327L268.091 34.924C268.129 32.9626 267.728 31.2127 266.887 29.6743C266.046 28.1359 264.88 26.9436 263.389 26.0975C261.937 25.213 260.236 24.7707 258.286 24.7707C256.375 24.7707 254.674 25.213 253.184 26.0975C251.693 26.9436 250.527 28.1551 249.686 29.732C248.845 31.2703 248.425 33.0395 248.425 35.0394V35.9624C248.425 38.0008 248.884 39.8276 249.801 41.4429C250.756 43.0197 252.075 44.2504 253.757 45.135C255.439 46.0196 257.369 46.4619 259.548 46.4619C261.344 46.4619 262.969 46.1542 264.421 45.5388C265.912 44.9235 267.212 44.0005 268.32 42.7697L271.359 46.3465C269.983 47.9618 268.263 49.1925 266.199 50.0386C264.173 50.8847 261.899 51.3078 259.376 51.3078Z" fill="white"/>
<path d="M280.951 50.9616V20.3863H286.226V28.6936L285.71 26.6167C286.551 24.5015 287.965 22.8862 289.953 21.7708C291.94 20.6555 294.387 20.0978 297.292 20.0978V25.463C297.062 25.4245 296.833 25.4053 296.604 25.4053C296.413 25.4053 296.221 25.4053 296.03 25.4053C293.087 25.4053 290.756 26.2898 289.035 28.059C287.315 29.8281 286.455 32.3857 286.455 35.7317V50.9616H280.951Z" fill="white"/>
<path d="M317.483 51.3078C314.425 51.3078 311.711 50.6347 309.341 49.2886C306.971 47.9426 305.098 46.0965 303.722 43.7505C302.346 41.366 301.658 38.6738 301.658 35.674C301.658 32.6357 302.346 29.9435 303.722 27.5975C305.098 25.2514 306.971 23.4246 309.341 22.117C311.711 20.7709 314.425 20.0978 317.483 20.0978C320.502 20.0978 323.197 20.7709 325.567 22.117C327.975 23.4246 329.848 25.2514 331.186 27.5975C332.562 29.905 333.25 32.5972 333.25 35.674C333.25 38.7123 332.562 41.4044 331.186 43.7505C329.848 46.0965 327.975 47.9426 325.567 49.2886C323.197 50.6347 320.502 51.3078 317.483 51.3078ZM317.483 46.4619C319.432 46.4619 321.171 46.0196 322.7 45.135C324.267 44.2504 325.49 43.0005 326.37 41.3852C327.249 39.7314 327.688 37.8277 327.688 35.674C327.688 33.4818 327.249 31.5972 326.37 30.0204C325.49 28.4051 324.267 27.1552 322.7 26.2706C321.171 25.386 319.432 24.9437 317.483 24.9437C315.533 24.9437 313.794 25.386 312.265 26.2706C310.736 27.1552 309.513 28.4051 308.596 30.0204C307.678 31.5972 307.22 33.4818 307.22 35.674C307.22 37.8277 307.678 39.7314 308.596 41.3852C309.513 43.0005 310.736 44.2504 312.265 45.135C313.794 46.0196 315.533 46.4619 317.483 46.4619Z" fill="white"/>
</svg>
